<svg version="1.1" viewBox="0 0 2048 2048" width="512" height="512" xmlns="http://www.w3.org/2000/svg">
<path transform="translate(300,213)" d="m0 0h1448l1 1-1 17-6 70-9 100-8 91-7 81-9 100-8 91-7 81-9 100-8 91-7 81-9 100-8 91-7 81-9 100-8 91-7 82-4 3-52 15-542 155-11-3-55-16-207-59-318-91-6-2-1-2-12-134-32-363-72-816-11-125v-10z" fill="#07b"/>
<path transform="translate(632,555)" d="m0 0h779l1 1v18l-12 190-12 194-16 263-9 145-1 17-2 4-16 6-43 14-30 10-43 14-72 24-49 16-37 12-41 14-6 1-20-7-54-18-83-27-36-12-37-12-103-34-3-2-1-6-12-216v-11l1-1h169l1 1 2 44 2 48 1 13 43 15 68 23 43 15 17 6 8-1 40-14 109-37 18-7h3l1-32 10-150 1-9h-374l-1-1-1-7-7-142v-21h192l199-1 9-118 4-52-586 1-2-1-2-20-10-134z" fill="#FDFDFD"/>
<path transform="translate(1029,341)" d="m0 0h517l60 1 1 1v16l-4 57-2 19-6 69-6 66-3 35-8 92-6 70-6 67-4 45-3 40-2 17-3 35-3 39-2 18-3 35-6 71-4 45-2 21-3 39-3 31-4 47-2 21-3 38-3 32-2 22-7 82-2 19-2 28-3 6-13 5-21 6-17 5-25 7-24 7-18 5-17 5-26 7-24 7-56 16-32 9-24 7-37 11-25 7-49 14-25 7-23 7-17 4h-3v-203l28-10 43-14 36-12 37-12 36-12 37-12 36-12 37-12 36-12 10-4 1-7 8-125 16-263 12-195 14-222v-18l-388-1-1-8 1-205z" fill="#029AE7"/>
<path transform="translate(1059,1067)" d="m0 0h152v9l-10 150-2 32-24 9-112 38-34 12-8 1 3-1-1-9v-149l-1-70v-21z" fill="#0199E6"/>
<path transform="translate(1022,725)" d="m0 0h210v12l-10 132-2 26-1 1h-195l-1-1z" fill="#0199E6"/>
</svg>
