<svg version="1.1" viewBox="0 0 800 1200" width="800" height="1200" xmlns="http://www.w3.org/2000/svg">
<path transform="translate(187)" d="m0 0h426l24 3 21 5 22 8 25 13 17 12 14 12 15 15 11 14 10 15 11 21 8 21 6 24 3 25v24l-3 25-6 24-10 25-9 17-11 16-8 10-11 12-10 10-17 13-14 9-19 10-24 9-21 5-23 3 24 3 20 5 22 8 20 10 18 12 10 8 10 9 13 13 11 14 10 15 11 21 8 21 6 24 2 13 1 12v24l-3 25-6 24-10 25-9 17-11 16-9 11-11 12-8 8-14 11-10 7-17 10-20 9-18 6-24 5-19 2h-22l-20-2-23-5-23-8-19-9-16-10-12-9-13-11-13-13-11-14-9-13-9-16-9-20-6-19-4-20-1-7-1 389-3 24-6 24-10 25-9 17-11 16-9 11-9 10-10 10-14 11-18 12-17 9-21 8-17 5-24 4-12 1h-20l-26-3-21-5-22-8-16-8-14-8-19-14-15-14-12-13-11-15-8-13-8-15-9-23-6-24-3-25v-25l3-24 5-21 8-22 13-25 12-17 11-13 17-17 17-13 18-11 21-10 24-8 19-4 16-2-25-4-19-5-19-7-17-8-16-10-12-9-13-11-13-13-11-14-7-10-10-17-9-20-6-18-5-23-2-19v-25l3-24 5-21 8-22 13-25 12-17 12-14 15-15 14-11 15-10 23-12 22-8 21-5 23-3-23-3-24-6-25-10-17-9-16-11-11-9-10-9-10-10-11-14-7-10-10-17-7-15-6-16-6-24-3-25v-25l3-24 6-24 6-16 10-21 11-17 10-13 11-12 11-11 14-11 15-10 21-11 21-8 19-5 18-3zm213 400v186h1l3-23 5-21 8-22 10-20 12-18 8-10 9-10 13-13 17-13 18-11 21-10 24-8 19-4 17-2v-1z" fill="#A259FE"/>
<path transform="translate(187)" d="m0 0h426l24 3 21 5 22 8 25 13 17 12 14 12 15 15 11 14 10 15 11 21 8 21 6 24 3 25v24l-3 25-6 24-10 25-9 17-11 16-8 10-11 12-10 10-17 13-14 9-19 10-24 9-21 5-25 3h-424l-25-3-24-6-25-10-17-9-16-11-11-9-10-9-10-10-11-14-7-10-10-17-7-15-6-16-6-24-3-25v-25l3-24 6-24 6-16 10-21 11-17 10-13 11-12 11-11 14-11 15-10 21-11 21-8 19-5 18-3z" fill="#FF7262"/>
<path transform="translate(187)" d="m0 0h213v400h-212l-25-3-24-6-25-10-17-9-16-11-11-9-10-9-10-10-11-14-7-10-10-17-7-15-6-16-6-24-3-25v-25l3-24 6-24 6-16 10-21 11-17 10-13 11-12 11-11 14-11 15-10 21-11 21-8 19-5 18-3z" fill="#F14E1E"/>
<path transform="translate(184,800)" d="m0 0h216v213l-3 24-6 24-10 25-9 17-11 16-9 11-9 10-10 10-14 11-18 12-17 9-21 8-17 5-24 4-12 1h-20l-26-3-21-5-22-8-16-8-14-8-19-14-15-14-12-13-11-15-8-13-8-15-9-23-6-24-3-25v-25l3-24 5-21 8-22 13-25 12-17 11-13 17-17 17-13 18-11 21-10 24-8 19-4z" fill="#0ACF83"/>
<path transform="translate(585,400)" d="m0 0h29l24 3 20 5 22 8 20 10 18 12 10 8 10 9 13 13 11 14 10 15 11 21 8 21 6 24 2 13 1 12v24l-3 25-6 24-10 25-9 17-11 16-9 11-11 12-8 8-14 11-10 7-17 10-20 9-18 6-24 5-19 2h-22l-20-2-23-5-23-8-19-9-16-10-12-9-13-11-13-13-11-14-9-13-9-16-9-20-6-19-4-20-2-18v-27l3-23 5-21 8-22 10-20 12-18 8-10 9-10 14-14 17-13 18-11 21-10 24-8 19-4z" fill="#1ABCFE"/>
</svg>
