<svg xmlns="http://www.w3.org/2000/svg" version="1.1" viewBox="0 0 1096 1092" width="250" height="250">
<path transform="translate(849,82)" d="m0 0h92l35 2 33 1-1 15-6 65-6 54-4 41-3 36-7 73-5 46-8 85-8 81-10 102-9 90-3 34-6 57-6 64-2 25-2 7-24 8-90 23-83 21-65 16-50 13-56 14-18 4-13-2-174-44-71-18-94-24-28-7-6-3-1-1-8-78-5-65-5-38-5-49-6-62-9-92-5-52-4-42-6-62-3-36-5-42-8-94-7-66-4-38-5-49v-5l1-1 20-1 35-1 164-1 59-1 332-1z" fill="#E24E27"/>
<path transform="translate(358,261)" d="m0 0h475l1 1-1 15-8 79-1 13-1 1h-452l10 100 1 8 55 1h374l1 1v11l-12 124-10 102-8 79-1 13-4 4-202 51-37 10-21-5-220-56-3-2-2-13-14-137-1-11v-13h118l2 1 4 40 5 48 16 5 85 21 26 7 10-1 67-17 57-14 3-24 6-61 5-51 1-3h-407l-3-1-2-13-14-139-9-94-6-61-1-18z" fill="#FAFAFA"/>
<path transform="translate(650,153)" d="m0 0h272l1 1v13l-1 3-3 35-4 44-2 15-2 21-1 7-1 15-1 4-1 17-3 26-1 15-4 39-1 15-1 7-6 60-3 26-1 14-1 5-2 23-2 19-3 36-4 40-2 17-2 22-2 21-2 22-1 7-3 34-3 26-2 26-3 29v7l-2 10-3 29-3 3-12 4-15 4-12 3-6 2-20 4-7 2-17 4-7 3-31 7-22 6-28 7-15 4-26 6-17 5-12 3-37 9-23 6-4-1v-93l-1-15-2-1v-2l9-1 49-13 186-47 3-3 5-54 9-87 11-116 6-61v-11h-374l-55-1-1-1-6-58-4-39v-11l452-1 6-64 4-37v-6h-593v-1l108-1 162-1 25-1v-4l-1-2-1-15 1-19 1-1 1-21v-8l2-12 2-2v-7l1-2 5-3h2l1-3h2v-2l7-1 5-1h4v2l12-3 11 1 9-1h39z" fill="#ED652B"/>
<path transform="translate(281,588)" d="m0 0h401l-4 44-6 60-3 29-2 7-124 31-10 1 3-1-1-15v-60l-1-33v-42l1-19-254-1z" fill="#ED652B"/>
<path transform="translate(371,371)" d="m0 0h161l6 2v6l-2 2-1 11 1 23v13l1 2-2 11v15l-1 11 1 3 2 1v2l5 2 4 3-49 1-34 1h-26l-55-1-1-1-6-58-4-39z" fill="#E24E27"/>
<path transform="translate(267,984)" d="m0 0 13 1 5 2 2 1 10 2 5 2 8 2v2l-10-1-35-9z" fill="#EE662C"/>
<path transform="translate(949,83)" d="m0 0 27 1 15 2v1h-12l-21 1-5-2z" fill="#F08253"/>
<path transform="translate(330 1e3)" d="m0 0 16 2 2 1v2h9l3 4-15-3-16-4z" fill="#ED652B"/>
<path transform="translate(378,1012)" d="m0 0 14 2v3h2l1-2v2h9l4 4-12-2-20-5z" fill="#EE662C"/>
<path transform="translate(408,1021)" d="m0 0h12l5 3 11 2v2l-8-1-20-5z" fill="#ED652B"/>
<path transform="translate(250,979)" d="m0 0h2v2h8l5 3-4 1-13-4z" fill="#EE662C"/>
<path transform="translate(315,996)" d="m0 0 12 1 2 4-11-2-5-1z" fill="#EE662C"/>
</svg>