<svg xmlns="http://www.w3.org/2000/svg" version="1.1" viewBox="0 0 1024 1024" width="1024" height="1024">
    <path transform="translate(240)" d="m0 0h523l36 1 22 2 25 4 23 6 22 8 22 11 11 7 14 10 14 12 16 16 11 14 10 15 10 18 9 21 7 22 5 25 3 25 1 48v505l-1 38-4 30-5 22-8 24-9 20-10 17-12 17-13 15-13 13-11 9-14 10-15 9-16 8-21 8-18 5-19 4-24 3-30 2h-527l-27-1-30-3-27-5-24-7-23-10-18-10-17-12-13-11-13-12-7-8-11-14-11-17-10-19-8-20-6-20-5-25-3-26-1-22v-522l1-36 2-22 5-29 7-24 8-20 8-16 10-16 9-12 12-14 14-14 14-11 10-7 15-9 25-12 24-8 29-6 26-3z" fill="#FFFFFE"/>
    <path transform="translate(240)" d="m0 0h523l36 1 22 2 25 4 23 6 22 8 22 11 11 7 14 10 14 12 16 16 11 14 10 15 10 18 9 21 7 22 5 25 3 25 1 48v505l-1 38-4 30-5 22-8 24-9 20-10 17-12 17-13 15-13 13-11 9-14 10-15 9-16 8-21 8-18 5-19 4-24 3-30 2h-527l-27-1-30-3-27-5-24-7-23-10-18-10-17-12-13-11-13-12-7-8-11-14-11-17-10-19-8-20-6-20-5-25-3-26-1-22v-522l1-36 2-22 5-29 7-24 8-20 8-16 10-16 9-12 12-14 14-14 14-11 10-7 15-9 25-12 24-8 29-6 26-3zm153 132-47 2-29 3-25 5-21 6-22 9-17 9-12 8-10 8-10 9-7 6-7 8-10 12-10 15-11 21-9 24-6 23-4 24-2 22-2 49v231l2 50 3 30 5 26 8 26 10 23 10 17 12 16 11 12 12 12 14 11 15 10 16 8 14 6 21 7 22 5 19 3 24 2 54 2h216l54-2 31-3 22-4 19-5 20-7 21-10 17-11 10-8 10-9 8-7 7-8 12-15 11-18 10-21 9-27 5-23 3-21 2-28 1-25 1-62v-132l-1-63-2-41-4-33-6-26-7-21-9-20-10-17-13-17-12-13-7-7-11-9-17-12-25-13-25-9-25-6-28-4-33-2-29-1z" fill="#C005E8"/>
    <path transform="translate(396,200)" d="m0 0h226l51 2 28 3 22 5 20 7 17 9 13 10 17 17 10 14 10 21 7 23 4 24 2 27 1 25 1 82v91l-1 78-2 41-3 23-5 22-8 21-8 15-11 14-14 14-14 10-17 9-16 6-2-1-2-4-16-16-8-7-10-9-9-7-5-5-13-10-17-12-19-12-11-7-9-6-27-14-5-3-4-2 20-7 20-10 14-9 12-9 10-9 8-7 7-8 13-17 8-13 8-15 8-21 5-18 4-24v-38l-4-25-6-21-9-21-8-15-8-12-10-13-14-15-10-9-15-11-13-8-15-8-21-8-18-5-17-3-9-1h-34l-26 4-24 7-18 8-17 9-16 11-13 11-17 17-10 13-9 14-12 23-9 27-4 18-2 18v28l3 23 5 20 7 19 9 19 10 16 11 14v1h-10l-32-4-33-2h-32l-33 2-21 2-1 2-1-14v-221l2-52 3-27 5-23 7-19 8-16 9-12 9-10 8-8 15-11 16-8 19-7 22-5 26-3z" fill="#FB01C6"/>
    <path transform="translate(393,132)" d="m0 0h236l49 2 29 3 26 5 26 8 18 8 19 10 16 12 14 12 11 11 11 14 9 13 10 18 10 25 6 22 4 20 3 27 2 41 1 63v132l-1 62-2 42-3 26-5 25-6 20-8 20-11 21-10 14-9 11-11 12-8 7-12 10-15 10-19 10-21 8-20 6-20 4-24 3-35 2-33 1h-216l-54-2-31-3-27-5-23-7-19-8-16-8-15-10-10-8-12-11-12-12-13-17-9-15-8-16-6-15-7-23-5-26-3-30-2-50v-231l2-49 3-29 5-26 7-23 9-21 9-17 10-14 9-11 11-12 8-7 12-10 15-10 21-11 21-8 22-6 21-4 29-3zm3 68-47 2-26 3-22 5-19 7-16 8-12 9-10 9-8 8-11 15-8 16-7 19-5 23-3 27-2 52v221l2 50 3 27 6 25 8 20 7 13 9 12 11 12 13 11 15 9 19 8 21 6 28 4 36 2 37 1h194l38-1 36-2 27-4 19-5 19-8 16-9 13-11 12-12 10-14 8-15 7-19 5-22 3-23 2-41 1-78v-91l-1-82-2-42-3-24-5-21-7-19-9-17-10-13-17-17-13-9-15-8-27-9-22-4-21-2-51-2z" fill="#FFFFFE"/>
    <path transform="translate(132,649)" d="m0 0h1l1 7 2 33 3 23 5 24 9 27 9 20 11 18 10 13 11 12 11 11 14 11 15 10 16 8 14 6 21 7 22 5 19 3 24 2 54 2h216l54-2 31-3 22-4 19-5 17-6h5l7 11 5 8 10 22 6 11 7 19 8 22 6 18 7 34-1 4-12 2-30 2h-527l-27-1-30-3-27-5-24-7-23-10-18-10-17-12-13-11-13-12-7-8-11-14-11-17-10-19-8-20-6-20-5-25-3-26-1-22v-42l1-35 12-6 22-12 25-12 30-12 30-10 11-3z" fill="#FE8F02"/>
    <path transform="translate(1018,201)" d="m0 0 3 1 2 15 1 48v505l-1 38-4 30-5 22-8 24-9 20-10 17-12 17-13 15-13 13-11 9-14 10-15 9-16 8-21 8-18 5-19 4-12 1-1-10-7-32-8-22-11-31-21-42-6-9-3-4 21-10 17-11 10-8 10-9 7-6 7-8 12-15 11-18 10-21 9-27 5-23 3-21 2-28 1-25 1-62v-132l-1-63-2-41-4-33-6-26-7-21-9-20-2-4 36-13 31-9 26-6 28-5z" fill="#FD0383"/>
    <path transform="translate(798,270)" d="m0 0 4 1 8 17 7 23 4 24 2 27 1 25 1 82v91l-1 78-2 41-3 23-5 22-8 21-8 15-11 14-14 14-14 10-17 9-16 6-2-1-2-4-16-16-8-7-10-9-9-7-5-5-13-10-17-12-19-12-11-7-9-6-27-14-5-3-4-2 20-7 20-10 14-9 12-9 10-9 8-7 7-8 13-17 8-13 8-15 8-21 5-18 4-24v-38l-4-25-6-21-9-21-8-15-8-12-10-13-3-4 3-2 14-3 7-8 9-11 6-7 10 2h17l12-4 10-7 7-8 5-11 2-8v-12l-1-7 4-4 26-17z" fill="#FD0383"/>
    <path transform="translate(679)" d="m0 0h84l36 1 22 2 25 4 23 6 22 8 22 11 11 7 14 10 14 12 16 16 11 14 10 15 10 18 9 21 7 22 5 25 1 10-24 2-33 5-28 6-26 7-36 12-10 4-4-1-9-15-11-14-12-13-13-12-15-11-13-8-23-11-24-8-21-5-28-4-33-2-29-1-185-1v-1l51-1 5-4 28-15 24-14 18-11 25-16 15-11 18-13 16-13 11-9 10-9 8-7 5-6z" fill="#FB01C6"/>
    <path transform="translate(256,631)" d="m0 0h32l33 2 43 5 9 10 10 10 14 11 15 10 19 10 21 8 19 5 18 3 10 1h26l24-3 17-4h7l19 10 18 10 10 7 21 13 20 14 18 14 5 5 20 18 8 7 13 13-1 3-9 3-23 4-23 2-22 1-38 1h-194l-59-2-23-2-23-4-20-6-18-8-14-9-14-12-11-12-10-15-8-17-6-18-5-25-2-20-1-20v-16l1-2 12-2 22-2z" fill="#FE8F02"/>
    <path transform="translate(147,257)" d="m0 0 6 1-1 5-7 21-5 21-4 28-2 33-1 29v254l-2 2-30 9-29 11-29 13-29 15-10 6h-3v35h-1v-412l1-41 37-6 50-10 47-11z" fill="#FB01C6"/>
    <path transform="translate(500,385)" d="m0 0h25l17 3 16 5 19 9 13 9 10 9 11 11 11 16 8 16 6 18 3 16v30l-4 20-7 19-9 16-11 14-14 14-14 10-19 10-15 5-14 3-8 1h-23l-14-2-18-5-18-8-11-7-14-11-10-10-11-15-9-16-6-16-4-18-1-8v-22l3-18 5-17 8-17 11-16 12-13 10-9 15-10 17-8 16-5z" fill="#FD1842"/>
    <path transform="translate(246,379)" d="m0 0h52l37 2 22 2 5 1 1 3-9 11-9 14-12 23-9 27-4 18-2 18v28l3 23 5 20 7 19 9 19 10 16 11 14v1h-10l-32-4-33-2h-32l-33 2-21 2-1 2-1-14v-221l2-21 22-2z" fill="#FE1842"/>
    <path transform="translate(699,567)" d="m0 0 5 1 11 7 16 12 20 13 14 11 12 11 6 5 7 8 11 12 10 14 6 7 5 1v10l-3 23-5 22-8 21-8 15-11 14-14 14-14 10-17 9-16 6-2-1-2-4-16-16-8-7-10-9-9-7-5-5-13-10-17-12-19-12-11-7-9-6-27-14-5-3-4-2 20-7 20-10 14-9 12-9 10-9 8-7 7-8 13-17 8-13 8-15 8-21z" fill="#FD1842"/>
    <path transform="translate(500,385)" d="m0 0h25l17 3 16 5 19 9 13 9 10 9 11 11 11 16 8 16 6 18 3 16v30l-1 7-2 4-10-3-29-10-28-9-40-11-48-11-49-8-42-5 1-9 6-15 9-16 8-10 9-10 11-10 15-10 17-8 16-5z" fill="#FD0383"/>
    <path transform="translate(131,433)" d="m0 0h1l1 216-2 2-30 9-29 11-29 13-29 15-10 6h-3v35h-1v-210l4-4 25-10 36-12 28-8 34-8h4z" fill="#FE1842"/>
    <path transform="translate(868,771)" d="m0 0 4 1 6 13 14 40 8 26 7 25 8 35 8 41 6 25 1 4-19 12-16 8-20 8-21 6-19 4-12 1-1-10-7-32-8-22-11-31-21-42-6-9-3-4 21-10 17-11 10-8 10-9 7-6 7-8 12-15 11-18z" fill="#FD1842"/>
    <path transform="translate(132,381)" d="m0 0h1l-1 52-1 55-42 10-34 10-29 10-22 9-3 1-1 2v-103l4-3 30-10 43-12 42-9 12-2z" fill="#FC0384"/>
    <path transform="translate(246,379)" d="m0 0h52l37 2 22 2 5 1 1 3-9 11-9 14-12 23-9 27-4 15-6-2-24-1h-36l-38 2-15 1v-89l1-6 22-2z" fill="#FD0383"/>
    <path transform="translate(990,430)" d="m0 0h25l8 2 1 43v43l-10 6-17 5-6 1h-23l-15-4-10-5-10-9-6-9-2-6v-17l5-13 9-12 9-8 13-8 15-6z" fill="#FD1743"/>
    <path transform="translate(714,263)" d="m0 0 15 2 14 7 9 9 5 8 3 9 1 5v12l-4 13-6 10-7 7-10 6-10 3h-17l-12-4-10-7-8-9-5-10-2-8v-14l4-13 6-9 5-5 8-6 9-4z" fill="#FFFFFE"/>
    </svg>