<?xml version="1.0" encoding="UTF-8"?>
<svg version="1.1" viewBox="0 0 2048 2048" width="512" height="512" xmlns="http://www.w3.org/2000/svg">
<path transform="translate(1215)" d="m0 0 5 1 8 10 9 15 8 16 8 20 6 20 4 17 3 23 1 16v16l-1 20-4 30-6 27-8 26-8 21-9 20-12 22-12 20-13 19-12 16-8 10-9 11-12 14-24 26-40 40-8 7-17 16-12 11-11 10-8 7-13 12-8 7-11 10-8 7-14 13-8 7-6 6h-2v2l-8 7-33 33-7 8-10 11-22 28-14 21-9 16-8 16-8 21-5 19-3 19v36l3 28 3 19 6 25 11 33 10 23 8 16 12 22 18 27 14 19 13 16 12 14 7 8 11 12 7 8 15 16 9 10 1 5-6-1-21-13-25-16-20-14-18-13-18-14-11-9-14-12-11-10-8-7-21-21-7-8-12-14-11-14-11-15-12-19-10-18-10-21-9-24-6-21-5-26-2-17v-41l3-21 5-21 6-17 9-21 10-19 14-22 14-19 8-10 12-14 11-12 7-8 28-28 8-7 16-15 11-9 11-10 11-9 10-9 11-9 13-11 11-9 13-11 11-9 13-11 11-9 14-12 11-9 11-10 8-7 12-11 10-9 16-15 26-26 7-8 9-10 9-11 7-8 15-20 16-24 12-21 13-27 9-25 5-17 5-26 2-17 1-24-1-25-3-27-4-26z" fill="#DB8C34"/>
<path transform="translate(563,1661)" d="m0 0h9l7 4v2l-24 7-32 11-26 11-19 10-15 10-10 8-11 11-6 10-4 9-1 5v9l4 10 7 8 11 8 16 9 20 9 28 10 35 10 36 9 44 9 47 8 57 8 65 7 53 4 51 3 36 1h55l66-2 66-3 68-5 51-5 56-7 45-7 52-10 42-10 40-12 28-10 21-9 20-10 19-12 14-12 8-9 7-11 4-7 3-1 9 7 8 10 5 11 1 5v11l-3 12-6 11-8 10-9 9-15 11-21 12-23 11-26 10-37 12-26 7-32 8-48 10-52 9-57 8-63 7-57 5-66 4-49 2-49 1h-52l-44-1-71-3-71-5-64-6-51-6-52-7-53-9-41-8-47-11-36-10-32-11-30-13-18-10-14-10-10-9-9-13-4-10v-15l5-14 10-13 10-10 18-13 25-14 25-11 26-10 30-10 37-10 44-10 44-8z" fill="#3E7291"/>
<path transform="translate(1401,423)" d="m0 0 7 1-1 3-19 10-24 14-19 12-30 20-18 13-18 14-11 9-7 6h-2v2l-11 9-7 7-8 7-15 15-7 8-9 10-11 14-13 18-12 20-8 15-10 25-5 17-3 14-2 21v14l3 24 6 22 8 21 11 24 12 22 10 17 15 26 11 19 13 25 9 23 4 16 1 6v26l-3 18-5 17-8 18-8 15-10 15-9 12-13 15-23 23-11 9-16 13-17 12-12 8-8-4 1-5 10-14 10-17 8-17 6-18 3-15 1-12v-14l-3-22-6-22-6-16-12-25-10-18-15-24-14-22-18-30-12-23-8-19-6-18-5-22-2-17v-22l2-21 4-22 7-24 9-22 12-23 7-11 11-16 11-14 12-14 11-12 12-12 8-7 15-13 14-11 19-14 27-18 18-11 24-14 34-18 23-11 34-15 46-18z" fill="#DB8C34"/>
<path transform="translate(783,1122)" d="m0 0h8l6 3 1 2-5 2-42 8-43 10-33 9-29 10-19 9-13 9-6 9v7l4 6 10 7 16 7 26 8 36 8 49 8 49 6 56 5 65 4 21 1h100l67-3 57-4 53-5 63-8 55-9 50-10 25-6 5-1 14 7 15 9 27 16 3 2-1 3-37 13-27 8-44 11-38 8-46 8-48 7-63 7-50 4-57 3-29 1h-109l-74-3-65-5-54-6-48-7-35-6-38-8-34-9-29-9-21-8-20-9-16-10-10-9-5-7-1-3v-9l4-9 7-8 8-7 21-12 25-10 21-7 42-11 45-9 56-9 57-7z" fill="#3E7291"/>
<path transform="translate(705,1366)" d="m0 0h7v4l-8 4-9 8-4 8-1 3v10l4 6v2l4 2 11 7 16 7 18 6 24 6 31 6 35 5 39 4 45 3 24 1h80l49-2 56-4 54-6 46-7 42-8 34-8 9-2 25 14 51 30v2l-32 13-27 9-30 8-30 7-43 8-46 7-43 5-46 4-55 3h-108l-40-2-50-4-43-5-42-6-28-5-34-7-30-8-29-9-20-8-17-8-14-9-11-10-6-10-2-10 4-11 9-10 14-9 19-9 27-9 36-9 24-5z" fill="#3E7291"/>
<path transform="translate(766,1598)" d="m0 0 5 1-2 4-5 8-1 7 4 8 9 7 15 7 22 7 29 6 35 5 35 3 42 2h64l43-2 36-3 33-4 36-6 32-7h9l28 16 24 14 26 15 11 7v2l-25 12-20 8-35 11-38 9-38 7-38 5-45 4-39 2h-72l-51-3-45-5-38-6-30-6-32-8-36-12-18-8-15-8-12-9-9-9-6-12v-13l4-9 7-8 9-8 21-11 18-7 29-8z" fill="#3E7291"/>
<path transform="translate(1710,1837)" d="m0 0h4v9l-4 15-8 15-11 14-14 14-14 11-18 12-17 10-19 10-27 12-34 13-33 11-42 12-55 13-55 11-59 9-46 6-48 5-82 6-63 3h-118l-72-4-67-5-56-6-58-8-23-4-39-7-41-9-48-12-4-2 1-3 7-4 18 2 64 9 54 6 56 5 60 4 40 2 32 1 84 1 70-2 84-4 67-5 60-6 55-7 56-9 43-8 45-10 39-10 40-12 27-9 37-14 36-16 27-14 25-15 18-13 13-11 12-11z" fill="#3E7291"/>
<path transform="translate(1588,1104)" d="m0 0h25l26 3 20 5 19 7 16 8 11 7 13 10 6 5v2l4 2 9 11 8 11 10 19 5 14 4 20 1 10v18l-3 21-6 21-8 18-9 16-10 14-8 10-18 20-8 7-10 9-14 11-18 13-15 10-20 12-16 9-27 14-31 14-28 11-24 9-29 9-9 2-7-4v-3l17-10 15-9 23-14 30-20 14-10 13-10 10-8 13-11 13-12 17-17 9-11 10-13 11-17 12-23 9-25 5-22 2-16v-23l-3-18-6-17-9-17-8-10-9-10-14-11-17-10-19-7-21-4h-29l-9 1 1-6 5-5 17-5 26-4z" fill="#3E7291"/>
</svg>
