<?xml version="1.0" encoding="UTF-8"?>
<svg version="1.1" viewBox="0 0 1024 1024" width="256" height="256" xmlns="http://www.w3.org/2000/svg">
<path transform="translate(181,64)" d="m0 0h476l8 7 182 182 1 2v221h23l1 1v330l-12 1h-12v151l-13 1h-654l-1-1v-151h-23l-1-1v-331l23-1 1-410z" fill="#E7091A"/>
<path transform="translate(181,64)" d="m0 0h476l8 7 182 182 1 2v221h-669l1-411z" fill="#FAFAFB"/>
<path transform="translate(180,808)" d="m0 0h668v151l-13 1h-654l-1-1z" fill="#FBFBFC"/>
<path transform="translate(446,552)" d="m0 0h70l21 4 17 6 14 9 6 5 9 12 7 15 4 18v32l-4 17-8 16-7 10-12 12-12 8-15 6-15 4-15 2h-60l-1-2v-173z" fill="#F8F8F9"/>
<path transform="translate(656,67)" d="m0 0 4 1 8 8 7 8 80 80 6 5 6 7 6 5 6 7 6 5 6 7 6 5 7 8 29 29 8 7 5 5v2l-107 1h-83l-1-1v-168z" fill="#FCFDFD"/>
<path transform="translate(270,552)" d="m0 0h69l15 4 12 6 10 9 7 10 4 12 1 14-2 14-4 11-7 11-8 8-10 6-15 5-13 2h-30v63l-1 1h-27l-2-1v-174z" fill="#F8F9F9"/>
<path transform="translate(180,808)" d="m0 0h668v151l-13 1h-654l-1-1zm3 3v145l1 1h84l577-1v-144l-1 4h-50l-21 1-25 1-27 1-15-2h-24l-9-1h-27l-3-1v2l-9-1-3-1-4 1h-37l-25 1-4 1h-26l-4 1h-8l-4-1-3 1-13-1h-81l-11-1-7 1h-10-4l-6 1h-64l-40-1-27-1-47-3-21 1z" fill="#DDF0F2"/>
<path transform="translate(476,576)" d="m0 0h35l18 4 14 7 9 9 8 16 3 15v23l-4 18-6 11-9 10-9 7-9 4-14 3-16 1h-19l-2-1v-25z" fill="#E80A1A"/>
<path transform="translate(650,552)" d="m0 0h94l1 1v22l-1 1-64 1v50l59 1 1 1v22l-2 1-58 1-1 74-1 1h-28l-1-1v-174z" fill="#F7F8F8"/>
<path transform="translate(181,64)" d="m0 0h476l8 7 182 182 1 2v221h-669l1-411zm2 3-1 341v53l1 14h662l-1-216-191 1v-193zm473 0-1 21v168l1 1h83l107-1-2-4-9-9-8-7-25-25-5-6-7-6-5-6-7-6-5-6-7-6-5-6-8-7-84-84-7-8-3-3z" fill="#AFADB0"/>
<path transform="translate(300,576)" d="m0 0h30l12 4 8 6 5 10 1 4v15l-5 12-9 8-11 4-8 1h-23l-1-1v-62z" fill="#E80A1A"/>
<path transform="translate(180,808)" d="m0 0 3 1 1 7v140h661v-50h2l1 53-13 1h-654l-1-1z" fill="#929398"/>
<path transform="translate(846,475)" d="m0 0 25 1 1 1v328h-1l-1-288-1-3v-32l-7-1-1-1-12-1-3 1-3-1-648-1-3-2z" fill="#C72337"/>
<path transform="translate(870,517)" d="m0 0h1l1 290-12 1h-11l1-2 10-2v-2l7-4h2l-1-19-3-1-3-6-3-12v-9l1-16 2-28 2-29 1-21 1-10 2-7h-2v-6-4l2-1-1-15v-17l1-53 1-26z" fill="#CD071F"/>
<path transform="translate(654,184)" d="m0 0h1l1 72h191v218h-2l-1-10v-205l-27 1h-164v-24z" fill="#848288"/>
<path transform="translate(180,65)" d="m0 0 3 4v406l-4 1z" fill="#8F8D92"/>
<path transform="translate(658,805)" d="m0 0h130l51 1 3 2h-600v-1l46-1h268z" fill="#CE061E"/>
<path transform="translate(847,808)" d="m0 0h1v149h-1v-51h-2v49h-1v-132l1-14z" fill="#AFAEB1"/>
<path transform="translate(181,65)" d="m0 0h446v1l-444 1-1 3h-1z" fill="#5A5C65"/>
<path transform="translate(180,808)" d="m0 0 3 1 1 7-1 122h-2v21h-1z" fill="#918F94"/>
<path transform="translate(156,476)" d="m0 0h22v1l-9 1h-10l-1 175-2 1z" fill="#CA182E"/>
<path transform="translate(627,65)" d="m0 0h31l-2 1v22l-2 7h-1v-28h-26z" fill="#76757C"/>
<path transform="translate(156,476)" d="m0 0h22v1l-9 1h-10v3l-3 1z" fill="#C43849"/>
</svg>
