<?xml version="1.0" encoding="UTF-8"?>
<svg version="1.1" viewBox="0 0 2048 551" width="2560" height="689" xmlns="http://www.w3.org/2000/svg">
<path transform="translate(1032)" d="m0 0h6l29 16 27 15 23 13 8 6 4 8v400l-3 7-7 6-26 15-28 16-24 14-52 30-10 5h-7l-16-8-24-14-28-16-24-14-52-30-6-8v-169l4-7 13-8 26-15 24-14 28-16 24-14 28-16 9-1 7 3 25 14 8 5h7l1-217 4-5zm-58 317-25 14-17 10-8 5v60l48 28h6l17-10 26-15 5-4v-58l-5-4-26-15-17-10z" fill="#404137"/>
<path transform="translate(559,199)" d="m0 0h11l22 12 17 10 28 16 52 30 22 13 5 5 2 5v167l-5 8-17 10-104 60-21 12-3 1h-7l-14-7-24-14-104-60-5-5-3-6v-166l3-6 7-6 25-14 17-10 52-30 28-16z" fill="#83CD29"/>
<path transform="translate(152,197)" d="m0 0 10 2 28 16 24 14 28 16 52 30 10 7 3 6v219l-3 5-2 1h-7l-28-16-26-15-28-16-5-5-3-5-1-106-3-8-5-4-28-16-9-5h-11l-25 14-16 10-3 5-1 5-1 106-5 7-24 14-56 32-5 3h-7l-4-4-1-2v-218l4-8 13-8 130-75z" fill="#404137"/>
<path transform="translate(1383,199)" d="m0 0 7 1 11 6 23 13 24 14 26 15 24 14 26 15 10 7 3 6v48l-5 8-29 17-26 15-27 16-4 2h-7l-4-4-1-43-2-5-9-6-23-13-14-8-7 1-23 13-20 12h-2l-1 4v54l5 5 24 14 56 32 26 15 28 16 6 5v8l-6 5-24 13-21 12-29 16-10 5h-8l-16-8-24-14-25-14-77-44-6-7-1-3v-166l3-6 7-6 25-14 17-10 78-45 15-9z" fill="#404137"/>
<path transform="translate(1788,196)" d="m0 0h15l16 8 24 14 78 45 20 12 7 8 3 7 1 6v151l-2 10-6 9-10 7-25 14-24 14-25 14-17 10-26 15-13 7-4 1h-9l-11-4-45-27v-3l18-8 4-2 5 1 32 19 5-1 17-10 28-16 24-14 28-16 26-15 5-3 1-3v-149l-5-5-25-14-17-10-52-30-28-16-3-2-7 1-28 16-24 14-28 16-26 15-22 13v153l15 9 24 14 8 2 10-1 6-4 3-6 1-153 3-3h19l2 2v159l-3 10-6 10-8 6-11 4h-21l-14-5-17-9-25-15-7-8-3-8v-160l4-10 6-7 52-30 28-16 24-14 26-15z" fill="#83CD29"/>
<path transform="translate(1820,302)" d="m0 0h21l19 3 12 5 9 6 6 7 5 10 2 7v10l-4 2h-16l-3-1-5-13-5-6-8-4-10-2h-24l-12 3-6 4-3 5v9l1 4 9 3 20 4 32 5 15 4 14 7 6 7 3 6 2 11-1 13-4 10-6 8-9 7-12 5-12 3-7 1h-29l-17-3-13-5-9-6-7-7-5-10-2-7v-12l1-1h21l2 2 4 13 5 6 8 4 9 2 12 1h12l16-2 10-4 4-5 2-5v-8l-5-6-12-4-18-3-30-4-16-5-9-5-7-7-4-9-1-5v-12l3-11 6-8 9-8 11-5 12-3z" fill="#83CD29"/>
<path transform="translate(1382,340)" d="m0 0h5l22 13 5 4v32l-4 4-23 13-7-1-23-13-2-2v-34l13-8z" fill="#83CD29"/>
<path transform="translate(2018,199)" d="m0 0h5l4 9 5 15 1 1 8-23 1-2h6v32h-4l-1-22-7 20-1 2-4 1-4-9-5-15-1 23h-4v-31z" fill="#83CD29"/>
<path transform="translate(1988,199)" d="m0 0h25v4l-10 1-1 28-4-1v-28h-11z" fill="#83CD29"/>
</svg>
