<?xml version="1.0" encoding="UTF-8"?>
<svg version="1.1" viewBox="0 0 1200 1068" width="1200" height="1068" xmlns="http://www.w3.org/2000/svg">
<path transform="translate(339)" d="m0 0h45l24 5 24 8 18 8 16 8 20 11 30 20 19 14 16 13 13 11 10 9 8 7 15 14 4 2 11-11 8-7 13-12 11-9 13-11 16-12 18-13 20-13 21-12 16-8 15-7 22-8 19-5 12-2h45l17 4 15 6 14 8 10 8 9 8 9 11 10 15 9 19 7 21 5 22 3 22 1 13v46l-3 35-6 40-9 43-3 12 10 2 43 14 38 15 28 13 26 14 22 14 11 8 14 11 13 12 9 9 11 14 10 15 9 19 5 17 2 14v20l-3 17-7 21-8 15-9 13-9 11-14 15-8 7-15 12-24 16-15 9-27 14-24 11-31 12-38 13-17 5h-2l9 39 7 41 4 35 1 15v45l-3 30-5 24-5 17-9 21-10 17-11 13-11 11-16 11-17 8-18 5-6 1h-41l-21-4-23-7-26-11-25-13-21-13-19-13-16-12-14-11-13-11-14-12-15-14-10-9-4 2-13 12-14 13-11 9-14 12-13 10-19 14-23 15-19 11-23 12-28 11-22 6-16 3h-41l-21-5-16-7-13-8-10-8-12-12-10-14-9-16-8-20-6-22-4-24-2-21v-47l3-34 4-28 6-33 8-34-12-3-40-13-38-15-26-12-25-13-18-11-16-11-14-11-20-18-9-10-12-16-10-18-6-15-4-17-1-8v-20l3-18 6-18 10-19 10-14 11-13 14-14 11-9 16-12 17-11 19-11 23-12 32-14 35-13 34-11 10-2-8-35-7-38-4-31-2-26v-46l3-29 5-25 8-24 9-19 10-15 12-14 13-11 15-9 14-6 14-4zm11 51-16 4-13 7-12 11-9 14-6 12-6 19-4 22-2 21v38l3 34 5 34 9 43 3 10 51-10 44-7 65-8 10-13 13-18 14-18 11-14 13-16 11-13 9-11 14-15 6-7-2-4-13-13-8-7-10-9-11-9-16-13-18-13-21-14-17-10-21-11-23-9-18-5-13-2zm478 0-17 3-20 6-25 11-24 13-27 18-19 14-17 14-11 9-15 14-8 7-8 8 2 4 12 13 9 11 10 11 9 11 13 16 13 17 14 18 12 17 7 9 58 7 45 7 42 8 15 3 4-15 7-33 5-31 3-28 1-15v-36l-3-29-6-25-6-15-7-13-9-11-8-7-16-8-13-3zm-229 156-14 15-9 11-9 10-9 11-13 16-13 17-1 3h138l-2-4-10-13-13-16-9-11-11-13-12-14-11-12zm-43 134-45 2-21 2-17 26-14 22-14 23-13 22-14 25-13 24-15 29-8 16 1 5 11 23 10 19 16 30 12 21 13 22 16 26 16 25 13 19 1 1 25 2 52 2h64l52-2 25-2 8-11 13-20 12-19 14-23 14-24 13-23 15-28 14-27 6-13-1-5-17-34-12-22-13-24-14-24-10-17-15-24-16-25-10-15-21-2-45-2zm221 11 2 5 13 21 9 15 13 22 14 25 15 28 3 4 4-8 16-41 12-34 5-15v-4l-16-4-43-8-40-6zm-360 0-47 7-42 8-11 3 1 7 14 41 16 41 5 12 2 1 14-27 13-23 12-21 12-20 13-21 4-6v-2zm-154 31-35 11-28 10-26 11-29 14-21 12-16 11-13 10-12 11-10 10-10 14-7 14-3 10-1 7v12l4 16 8 16 9 12 11 12 11 10 16 12 19 12 18 10 22 11 31 13 34 12 29 9h2l12-36 13-36 18-44 15-34-1-5-14-31-13-32-14-37-14-41-2-6zm671 0-12 36-14 38-13 32-13 30-6 13 1 5 17 39 16 40 13 36 11 33 12-3 37-12 33-13 20-9 26-13 21-13 14-10 11-9 12-11 9-10 7-10 8-16 4-16v-12l-3-14-5-12-10-15-12-13-9-9-14-11-21-14-21-12-22-11-31-13-34-12-29-9zm-580 213-5 10-14 36-10 28-8 24v4l28 6 39 7 36 5 4-1-11-17-15-25-14-24-14-25-15-28zm491 0-18 34-12 21-14 24-14 23-11 17v1l13-1 45-7 46-9 3-1-1-7-11-33-14-37-10-24zm-543 152-4 14-8 39-5 33-3 35v37l2 22 5 25 6 18 9 17 10 12 11 8 10 5 11 3 8 1h14l19-3 21-6 23-10 23-12 19-12 20-14 18-14 13-11 11-9 15-14 10-9 3-3-2-5-10-10-9-11-10-11-9-11-14-17-13-17-14-18-10-14-9-13-3-1-45-5-42-6-39-7-29-6zm593 0-33 7-41 7-51 7-29 3-4 1-12 17-12 16-13 17-11 14-9 11-11 13-9 11-11 12-7 8-5 6 2 4 7 7 8 7 13 12 11 9 13 11 16 12 17 12 19 12 18 10 21 10 19 7 22 5 9 1h14l16-3 10-4 10-7 5-4 8-10 8-14 6-15 5-20 3-21 1-13v-36l-2-27-6-42-8-39-4-14zm-364 29 2 5 11 14 13 16 9 11 24 28 9 10 4-2 7-8 10-11 9-11 12-14 11-14 12-15 5-7-1-2-29 1h-78z" fill="#61DAFB"/>
<path transform="translate(588,427)" d="m0 0h24l16 3 19 7 15 9 11 9 8 8 11 15 9 19 5 19 1 8v19l-3 18-6 17-9 16-8 10-7 8-14 11-16 9-18 6-9 2-10 1h-14l-15-2-17-5-16-8-13-9-10-9-11-14-8-14-5-12-4-17-1-7v-20l3-17 5-15 9-17 11-14 8-8 15-11 16-8 16-5z" fill="#61DAFB"/>
</svg>
