<?xml version="1.0" encoding="UTF-8"?>
<svg version="1.1" viewBox="0 0 2048 1365" width="3000" height="2000" xmlns="http://www.w3.org/2000/svg">
<path transform="translate(288,772)" d="m0 0 15 1 10 3 11 6 8 8 7 12 68 157 7 16v3h2l1-5 19-42 16-36 13-29 20-45 11-24 7-9 7-7 12-6 16-3 17 1 17 4 14 7 6 7 4 13v213h-51l-1-1-1-200-17 37-26 58-36 80-6 11-9 10-10 5-8 2-9 1h-11l-14-2-10-4-8-6-7-10-11-23-13-29-54-120-5-11-1 202h-51l-1-1v-209l2-10 4-8 9-8 13-5 14-3z" fill="#00618A"/>
<path transform="translate(1257,778)" d="m0 0h125l20 4 16 6 12 7 9 9 7 14 2 8v143l-3 12-6 11-9 8-11 6 6 7 8 7 12 11 20 18 3 3h-61l-7-7-8-7-12-11-8-7-5-4-25 1-15 1h-62l-21-3-16-5-16-8-10-9-6-8-4-9-2-11v-137l3-12 5-10 8-9 10-7 14-6 15-4zm22 34-12 2-9 4-8 7-3 5-1 4v124l4 11 5 6 12 6 9 2h55l-13-13-8-7-12-11-8-7h59l15 14 8 7 12 11 3 1 9-8 3-6 1-5v-124l-4-10-9-8-12-4-7-1z" fill="#E48E00"/>
<path transform="translate(1244,276)" d="m0 0h17l19 5 18 8 17 9 13 10 7 5 3 1 30 2 28 7 13 5 12 6 19 12 15 10 14 10 14 11 14 12 16 15 15 16 9 11 13 17 18 27 8 14 8 18 12 29 14 30 12 25 8 16 9 17 6 5 15 6 28 13 11 6 12 8 14 10 17 13 11 9 13 11 10 12 7 9v4l-25 7-30 4-23 6-7 2 6 9 13 10 22 13 16 12 13 12 10 10 9 11 10 10 6 13-5-2-13-11-18-13-14-8-35-17-12-8-16-12-9-8-11-15-7-14 2-5 8-4 25-8 16-3 10-1h32l-4-7-12-9-13-8-17-12-18-12-12-6-31-11-18-6-9-6-8-11-14-27-13-29-15-31-9-21-7-18-9-17-13-21-14-19-9-11-12-14-21-21-11-9-12-10-20-14-15-9-23-12-21-8-8-2-43-4-9-6-10-8-18-10-20-9-12-4h-12l-5 3-2 5 1 9 7 14 20 26 12 18 8 16 12 36 7 20 10 21 10 14 9 9 3 7v7l-4 15-7 19-4 17-2 16v28l3 22 6 21 7 15 5 8 6 4 5 1 5-37 4-17 8-16 12-15 1-2 3 1 3 8 5 13 12 27 14 26 15 25 13 19 9 12 11 12 8 8 6 5-2 1-9-6-14-14-13-10-13-12-6-5-7-8-8-9-7-10-12-23-6-11-4 23-3 19-6 12-7 5-7 2-11-1-10-6-8-8-10-15-8-18-6-23-2-14-1-15v-11l2-23 5-22 6-25 3-7-1-6-1-3-4-2-8-11-10-18-8-18-14-39-4-15-6-11-10-14-20-26-8-14-3-7-1-5v-12l4-11 6-8 9-6z" fill="#01618A"/>
<path transform="translate(835,849)" d="m0 0h51l1 21v65l-1 108-4 12-7 9-7 7-14 8-13 5-19 4-7 1h-175v-34l1-1 169-1 13-4 6-4 3-4 1-3 1-23h-121l-21-3-17-5-17-9-10-9-6-9-3-11v-119h52l1 118 3 6 6 5 9 3 7 1 117 1v-134z" fill="#00618A"/>
<path transform="translate(998,777)" d="m0 0h161v35l-157 1-14 3-6 5-2 6v34l3 8 2 4 4 2 12 4 82 1 17 2 19 5 17 8 9 7 8 9 4 10v49l-4 13-7 9-8 7-14 8-13 5-12 3-17 2h-155l-1-1v-34l151-1 11-2 9-5 6-7 1-4v-33l-4-8-7-5-10-3-8-1-73-1-21-3-15-4-17-8-9-7-7-7-5-10-1-4v-45l3-11 5-10 9-9 14-8 13-5 15-3z" fill="#E48E00"/>
<path transform="translate(1481,777)" d="m0 0h51l1 1 1 186 4 8 9 6 15 3 149 1v35h-141l-23-2-20-4-16-6-11-7-7-6-7-10-4-11-1-5z" fill="#E48E00"/>
<path transform="translate(1766,943)" d="m0 0h15l11 4 8 6 7 8 4 10 1 6v8l-3 12-6 9-9 8-9 4-4 1h-15l-11-4-6-4-7-7-5-9-2-9v-10l4-13 6-8 8-7 9-4zm1 8-10 4-6 5-5 8-2 6v14l4 10 6 7 12 6h15l10-5 5-4 5-8 2-7v-12l-3-9-9-10-8-4-3-1z" fill="#E48E00"/>
<path transform="translate(1758,959)" d="m0 0h21l9 3 3 4 1 7-3 7-4 3-4 2 11 17v1h-8l-7-10-4-7v-2l-7 1-1 18h-7zm8 6-1 1v11l1 1h13l5-5-1-5-2-2-5-1z" fill="#E48E00"/>
<path transform="translate(1344,374)" d="m0 0h7l9 7 4 5 2 4v10l-4 8-5 4-8-16-4-6-9-11-1-3z" fill="#02628B"/>
</svg>
