<?xml version="1.0" encoding="UTF-8"?>
<svg version="1.1" viewBox="0 0 1392 988" width="348" height="247" xmlns="http://www.w3.org/2000/svg">
<path transform="translate(0)" d="m0 0h1392v988h-1392z" fill="#26BD9D"/>
<path transform="translate(0)" d="m0 0h649l-3 2-36 6-29 6-25 7-30 10-28 11-25 12-20 11-13 8-18 11-14 10-13 10-11 9-14 12-13 12-25 25-1 2h-2l-2 4-14 17-14 19-13 19-10 16-13 23-13 26-13 32-9 27-7 25-5 22-6 38-2 24-2 29v17l3 44 6 39 8 36 7 25 11 29 13 30 10 20 16 27 18 27 22 28 12 14 14 14 7 8 17 16 4 3v2l4 2 11 9 15 12 14 10 20 13 22 13 12 7 28 13 23 10 40 13 24 6 36 7 38 5h71l19-2 27-4 35-7 26-7 36-12 16-7 24-11 23-12 24-14 15-10 19-14 14-11 11-10 8-7 43-43 26-34 16-24 15-25 12-23 9-19 14-37 7-22 8-32 5-28 4-29 2-20v-44l-4-42-5-33-6-28-8-28-8-24-11-28-11-24-13-23-13-22-9-13-12-16-10-13-9-11-11-12-7-8-21-21-8-7-9-8-13-10-19-14-27-18-21-12-23-12-21-10-36-13-33-10-26-6-49-8-2-2h647v988h-1392z" fill="#FDFDFD"/>
<path transform="translate(677,124)" d="m0 0h43l17 2 25 5 19 5 22 8 29 14 19 12 16 12 11 9 22 22 11 14 13 19 14 27 6 14 8 24 5 23 3 22v63l-4 27-7 26-10 26-7 16-14 24-10 15-9 14-11 18-7 11-8 13-6 10-8 13-10 16-8 13-11 18-16 27-10 16-12 20-11 18-8 13-42 70-11 19-13 26-4 11-4-1-10-21-10-19-14-27-12-22-8-14-13-23-10-17-13-21-12-20-13-21-24-38-16-24-10-16-16-25-29-43-13-20-11-19-5-11-8-20-7-22-5-25-3-22v-42l4-29 6-25 7-21 8-18 11-21 16-24 9-11 9-10 7-8 10-9 16-13 17-12 22-12 23-11 27-9 21-5z" fill="#FDFDFD"/>
<path transform="translate(692,239)" d="m0 0h18l25 5 21 7 16 7 10 7 13 10 10 9 7 8 8 10 11 18 8 19 5 15 4 22v24l-5 23-5 15-12 25-12 17-24 24-19 12-19 9-21 7-22 3h-15l-26-4-16-5-16-6-22-12-12-9-10-9-10-12-9-13-8-16-6-16-5-21-2-12v-28l5-26 6-16 10-20 10-14 12-14 16-13 14-9 16-8 17-6 15-4z" fill="#26BD9D"/>
</svg>
